<?xml version="1.0" standalone="no"?>
<!DOCTYPE svg PUBLIC "-//W3C//DTD SVG 20010904//EN"
 "http://www.w3.org/TR/2001/REC-SVG-20010904/DTD/svg10.dtd">
<svg version="1.0" xmlns="http://www.w3.org/2000/svg"
 width="260.000000pt" height="260.000000pt" viewBox="0 0 260.000000 260.000000"
 preserveAspectRatio="xMidYMid meet">
<metadata>
Created by potrace 1.11, written by Peter Selinger 2001-2013
</metadata>
<g transform="translate(0.000000,260.000000) scale(0.100000,-0.100000)"
fill="#000000" stroke="none">
<path d="M480 2035 c0 -4 42 -135 94 -293 52 -158 139 -420 192 -583 l97 -296
147 0 146 -1 129 385 c71 212 132 386 136 388 4 3 139 -399 236 -705 9 -30 21
-58 27 -62 5 -3 72 -5 149 -5 l140 2 73 220 c94 285 271 824 294 898 l18 57
-132 0 -131 0 -75 -227 c-41 -126 -75 -232 -76 -238 -13 -58 -123 -356 -127
-345 -3 8 -47 143 -97 300 -50 157 -108 336 -128 398 l-36 112 -127 0 -127 0
-40 -117 c-21 -65 -81 -244 -132 -398 -52 -154 -97 -284 -101 -289 -4 -4 -25
50 -48 120 -22 71 -80 253 -129 404 l-88 275 -142 3 c-78 1 -142 0 -142 -3z"/>
<path d="M332 1639 c-105 -52 -99 -200 10 -244 48 -19 87 -19 135 0 101 40
113 185 21 240 -45 26 -118 28 -166 4z"/>
<path d="M288 1263 c-4 -7 -2 -769 1 -815 1 -16 14 -18 121 -18 66 0 120 3
121 8 1 4 2 193 3 420 l1 412 -122 0 c-67 0 -123 -3 -125 -7z"/>
</g>
</svg>
