<svg version="1.0" xmlns="http://www.w3.org/2000/svg" width="346.667" height="346.667" viewBox="0 0 260 260"><path d="M48 56.5c0 .4 4.2 13.5 9.4 29.3s13.9 42 19.2 58.3l9.7 29.6H101l14.6.1 12.9-38.5c7.1-21.2 13.2-38.6 13.6-38.8.4-.3 13.9 39.9 23.6 70.5.9 3 2.1 5.8 2.7 6.2.5.3 7.2.5 14.9.5l14-.2 7.3-22C214 123 231.7 69.1 234 61.7l1.8-5.7h-26.3L202 78.7c-4.1 12.6-7.5 23.2-7.6 23.8-1.3 5.8-12.3 35.6-12.7 34.5-.3-.8-4.7-14.3-9.7-30-5-15.7-10.8-33.6-12.8-39.8L155.6 56h-25.4l-4 11.7c-2.1 6.5-8.1 24.4-13.2 39.8-5.2 15.4-9.7 28.4-10.1 28.9-.4.4-2.5-5-4.8-12-2.2-7.1-8-25.3-12.9-40.4l-8.8-27.5-14.2-.3c-7.8-.1-14.2 0-14.2.3zM33.2 96.1c-10.5 5.2-9.9 20 1 24.4 4.8 1.9 8.7 1.9 13.5 0 10.1-4 11.3-18.5 2.1-24-4.5-2.6-11.8-2.8-16.6-.4zm-4.4 37.6c-.4.7-.2 76.9.1 81.5.1 1.6 1.4 1.8 12.1 1.8 6.6 0 12-.3 12.1-.8.1-.4.2-19.3.3-42l.1-41.2H41.3c-6.7 0-12.3.3-12.5.7z"/></svg>